<mxfile host="app.diagrams.net" agent="Mozilla/5.0 (Windows NT 10.0; Win64; x64) AppleWebKit/537.36 (KHTML, like Gecko) Chrome/136.0.0.0 Safari/537.36" version="26.2.13">
  <diagram name="PÃ¡gina-1" id="OzpCF5_xjqBCHIshBpFC">
    <mxGraphModel dx="1028" dy="507" grid="1" gridSize="10" guides="1" tooltips="1" connect="1" arrows="1" fold="1" page="1" pageScale="1" pageWidth="827" pageHeight="1169" math="0" shadow="0">
      <root>
        <mxCell id="0" />
        <mxCell id="1" parent="0" />
        <mxCell id="Tuuc9--l-ZZjQsvKf7pB-14" style="edgeStyle=orthogonalEdgeStyle;rounded=0;orthogonalLoop=1;jettySize=auto;html=1;dashed=1;fillColor=#dae8fc;strokeColor=#6c8ebf;" edge="1" parent="1" source="Tuuc9--l-ZZjQsvKf7pB-1" target="Tuuc9--l-ZZjQsvKf7pB-3">
          <mxGeometry relative="1" as="geometry" />
        </mxCell>
        <mxCell id="Tuuc9--l-ZZjQsvKf7pB-1" value="" style="aspect=fixed;sketch=0;html=1;dashed=0;whitespace=wrap;verticalLabelPosition=bottom;verticalAlign=top;fillColor=#2875E2;strokeColor=#ffffff;points=[[0.005,0.63,0],[0.1,0.2,0],[0.9,0.2,0],[0.5,0,0],[0.995,0.63,0],[0.72,0.99,0],[0.5,1,0],[0.28,0.99,0]];shape=mxgraph.kubernetes.icon2;kubernetesLabel=1;prIcon=api" vertex="1" parent="1">
          <mxGeometry x="470" y="182" width="50" height="48" as="geometry" />
        </mxCell>
        <mxCell id="Tuuc9--l-ZZjQsvKf7pB-2" value="" style="shape=image;html=1;verticalAlign=top;verticalLabelPosition=bottom;labelBackgroundColor=#ffffff;imageAspect=0;aspect=fixed;image=https://cdn1.iconfinder.com/data/icons/unicons-line-vol-4/24/java-script-128.png" vertex="1" parent="1">
          <mxGeometry x="330" y="120.13" width="48" height="48" as="geometry" />
        </mxCell>
        <mxCell id="Tuuc9--l-ZZjQsvKf7pB-3" value="Services" style="html=1;whiteSpace=wrap;strokeColor=none;fillColor=#0079D6;labelPosition=center;verticalLabelPosition=middle;verticalAlign=top;align=center;fontSize=12;outlineConnect=0;spacingTop=-6;fontColor=#FFFFFF;sketch=0;shape=mxgraph.sitemap.services;" vertex="1" parent="1">
          <mxGeometry x="570" y="180" width="80" height="50" as="geometry" />
        </mxCell>
        <mxCell id="Tuuc9--l-ZZjQsvKf7pB-8" style="edgeStyle=orthogonalEdgeStyle;rounded=1;orthogonalLoop=1;jettySize=auto;html=1;entryX=0;entryY=0.5;entryDx=0;entryDy=0;dashed=1;fillColor=#dae8fc;strokeColor=#6c8ebf;curved=0;" edge="1" parent="1" source="Tuuc9--l-ZZjQsvKf7pB-4" target="Tuuc9--l-ZZjQsvKf7pB-6">
          <mxGeometry relative="1" as="geometry" />
        </mxCell>
        <mxCell id="Tuuc9--l-ZZjQsvKf7pB-9" style="edgeStyle=orthogonalEdgeStyle;rounded=1;orthogonalLoop=1;jettySize=auto;html=1;fillColor=#dae8fc;strokeColor=#6c8ebf;dashed=1;curved=0;" edge="1" parent="1" source="Tuuc9--l-ZZjQsvKf7pB-4" target="Tuuc9--l-ZZjQsvKf7pB-5">
          <mxGeometry relative="1" as="geometry">
            <Array as="points">
              <mxPoint x="180" y="206" />
              <mxPoint x="180" y="280" />
            </Array>
          </mxGeometry>
        </mxCell>
        <mxCell id="Tuuc9--l-ZZjQsvKf7pB-4" value="" style="aspect=fixed;sketch=0;html=1;dashed=0;whitespace=wrap;verticalLabelPosition=bottom;verticalAlign=top;fillColor=#2875E2;strokeColor=#ffffff;points=[[0.005,0.63,0],[0.1,0.2,0],[0.9,0.2,0],[0.5,0,0],[0.995,0.63,0],[0.72,0.99,0],[0.5,1,0],[0.28,0.99,0]];shape=mxgraph.kubernetes.icon2;prIcon=user" vertex="1" parent="1">
          <mxGeometry x="100" y="182" width="50" height="48" as="geometry" />
        </mxCell>
        <mxCell id="Tuuc9--l-ZZjQsvKf7pB-5" value="" style="dashed=0;outlineConnect=0;html=1;align=center;labelPosition=center;verticalLabelPosition=bottom;verticalAlign=top;shape=mxgraph.weblogos.whatsapp;fillColor=#00E676;strokeColor=#dddddd" vertex="1" parent="1">
          <mxGeometry x="218.3" y="260" width="34.4" height="36.22" as="geometry" />
        </mxCell>
        <mxCell id="Tuuc9--l-ZZjQsvKf7pB-7" style="edgeStyle=orthogonalEdgeStyle;rounded=0;orthogonalLoop=1;jettySize=auto;html=1;dashed=1;fillColor=#dae8fc;strokeColor=#6c8ebf;" edge="1" parent="1" source="Tuuc9--l-ZZjQsvKf7pB-6" target="Tuuc9--l-ZZjQsvKf7pB-2">
          <mxGeometry relative="1" as="geometry" />
        </mxCell>
        <mxCell id="Tuuc9--l-ZZjQsvKf7pB-6" value="" style="shape=image;verticalLabelPosition=bottom;labelBackgroundColor=default;verticalAlign=top;aspect=fixed;imageAspect=0;image=data:image/png,iVBORw0KGgoAAAANSUhEUgAAAKEAAABICAYAAACeGpX8AAAAAXNSR0IArs4c6QAAAARnQU1BAACxjwv8YQUAAAAJcEhZcwAAFxEAABcRAcom8z8AACMeSURBVHhe7X0JmBTF3X6DsDtd1dNVPcuKKGFRIFGiRsOl8UswJvGOnyZ/NRq/eIKgiWc0RhNHDjUGFUFcWHa6qnv2YlcFxEQTNS6XGo+In2eiyKWIcvjJ4sGh2//nrereneldZEXRXZz3eebZnZ6unp7uX//qd75lGAXsDLoZvSdRy6roZaaq+iaTYhDllQdTJo6itvyFyeXFhIs0ceSdhMsayuRfKZMLTVs+R5hYSm3xBmHuesrEJspEU/g3euF9k8nkWsrcVYSJf1Mmnibce4Ryea/JZSXl4mbKvMtp0juLMv/HhLvfse3KgWbK24exGscwGoriJ1xAFwUplXsRljmU2PJYwrxziS2vIdybTJioI1w8Sph4yeLyHcpkYDkNgeXcG75mq/eU+wFhcjPhcj1hchXh4j+Eif+lXD5FmLeYMDmfcNFImfw7ZeJByuTfCJePYjvlchH2o0w+h3GUyTcIlxsIE9sor4l9190B5aKZMncN5eJZysRfKJcVFh4EJi4oduSx1MkcWFKSScZ/YwGdA92MkkySMHlIwvZOI7a8jjLXI1w+TJh8nnABIfuEOrMCK4Ubfk9gOfUB5VUBZWIj4fIlwuRDlAmfcvFnwrzfEibPsZh7CrHFMQnu/cC0xTDKxUHJpP9NxmR/aCxKs3smk36JbdenUqkqu7S0wYKQ2HZlCttp7/I9zZLavRO8ugzjKPUOxnES3B1JkuJ4arunWY4cQ5m8wbRFBbQtscWL1JbvU6c2fChmBzhvwsXHlInVlPtPUtu9l7LMxIQtTi9KVn3LMCp6xi9IAbsSvbPUTM3sS5g3JMnF2YSL200uHqbMXUmY10R5VgtZSt88yuU2wr21lImXCHPvo1xOMm1xEXG844os/wAcy7JqehmlDdZXezMb9sBvg3mQcMQ3CPMPpY443eLu9YTJBnX+3N+gf5/WoEpLc299qJmFxeT5eBAtyy2NH72AzwHHqWCEie+aLHMq4fJ6wuVswsUyyr2gRVuk5irNRph8D1MfZXJegovJpu1dSFn2KAiaYQTd4sfuWkh3Ly6tHGgy+XOTiYmEybmEea/gOlipOeF0XgONuY1w8TTl/iTquKdZJXL/+JEK2DG6Ue4dbDFxAeWiHMa8ycRbFq9rsdMsaDhHTaUrIXDUEeNp0j3LsuQRZklm7/gBd1cw5u5nJsVPCRfXUu49SJjYZDm4TvVaUzoQSvkfwkWtZYuLYEbEj1GAQkMRIXIvwv0TCXPvoNx7AgY85VI/4an7AurUBZR7H1EuV0EDUCavTHDx/WLbG1Aw1DUwY1AneyBh/ihTOUfiXdi8rVO3xPS9lDBZQ5L+idg/foyvF0qnWZhiibZhZlHmvkW5tw3aTdtzcwPKqwPK5Apii4dNJm8ijjhGhy7SPeKHKyCOip7Umfltk3njCJdPUi63YrpWMwivwQO9jTLxHGXZy61U5QHx0bsx0t0TVuURxBa/o8ybiycVF0VPH3oKgeDBzjFt6Zq2Oxaxs/hRCvhswExBbXEmseXdlMvNelapDqiDVx0cm2XUdidBKcTH7iZId7esqsGEe9cS7v6DMm+NFrjwqXTUU/kJgr+E+VNMnjkJQeP4UQr4IpAuoiWZHxHHq6ZcbIFTB09bxytnBZRlVxIuJiNgHh/ZJVHMZP8ERyZA/pUwuR6hBK318EIAWDZTLpYRJqqSPHOSDil0de+1i2BwQxFJZY6mXP6dcv8TLYyINEAh1CDCsApxUsQ540M7P8pkgtiZown3bqVMrFCBYPwwB08aQikIoXgbKJezTe5ejFhY/BAFfJmYUmzZ4kLKvVe1reiFr+pQGLPzqS1+Eh/VKYFAL7XdiymXfyPM+yCy7bTdgacrC+F7iTIxLmGJ78fHF/DVwkq5gwkXdXpqrgq9aGjGuoA4/nsmE+N0IL8TIpnMfIsybxzlKmDa3JIGU8JXB8F7n9heI7XlL3WwuIBOC8xijnsNZeJDyjE9QxBl6LzUBnAkk8npncdWR+7T4v7thMu1udpOx6SQ4/TXIuxCkt5xhXBK1wK1K08nXL6dJ4jc13Fa23s2mZKHxcd8qUg4lUcgyU64t0HnZCF4vv6rXf0NhIvpFvdHxscW0HVAbO9oyvwV2mGJBBG2okoYLLMc/7/iY3Y5UDlCbVlBub9GC19kN2jHg3CxiXB/hmlnhsbHFtA1gVAZ4f46bdtHgogXlI1Ybn5ZGhHlR9TJTiRcrFXqWU27Wj2raZd5mwj36hJO5nDEA+PjC+jaMO3MGMq9j/WMFxdE7xmE4eJjvjAgwm7a3ljC/Fd0dB2aD+oYJ4AnowpPw8MmF/8dH1vA7gWTi5ktccTcqVk5nqLWMJ754kvfEBdCrjaKFbV+MZ6GWjgdr5q2HGN87ZPfXw8knIp+lLuvKS85TxvCD/CbiZMZFR+z00AFMOX+LYT57yGtph2OSOrhovsfUu7PKN7T3S8+toDdG5SLX1s6vZoviFobvgizLT7mMwPVKZT5/9SaL1fiYfvhi9znTSZPzR1z/r7pgy/cNz189JCvshK5gC8DaAIjTL6QH7bJlQ/vt/ExHUdpg2Um3RtatV+upLdIvlvMZu4bDbngmxP2HT1gwh1jB9389uj9Jrx8Yd9r98k/aAG7I6gt/qyTEblCiMYwzJLiyZ3KqCDbQVRFMoQtCrlE028dIuRr4B3l9lycN2jcCaMGTnht7KCbggsH3PjyqH3HX352WTqRf+QCdkeYzDuFMu+Dtp4y5MX/2C4Rw+JjPhXFcD6Y94KO+UW2n1avYQXzM/GA5KhBE0+4YOD490YNnLB4zH43H1VmyDzha55k0HduM3aPEqAC2iDZSwwiXLzWGqbLEULUgNre7+JjtgvCMucR7r3T1u1GB1cNVOt9xSzf+Rg7KL3f6IHjXxs1YHztSSW3qFL6IDCKNpcbJ268w7iy6XbjjxtvN+Z8eKexdGPVQTcFQcBzx7cHy5pSSnpVDjFT7gjqeN8uMQol+p0bU4oJE0/oapv8KVlpR+bOjY9oF4TJqyjLfpQfesEL03E2MLmoYEzmCdDYg252Rg2acDc04KmlaTXvN001jmi6w7j6vanG6ZumGKc1TbOubZrW85Og3AiCrBN8WHtgefNthpl7nAiqFxfMAzz7FOVitc4/i+WUVS1GJ12hX6TzgnDxSHt2IZQZvOT4/jGku5tJMY7y7Cdt0zBIvWG7uDneczvSSPcYPXD8jMv2vyMYNWDC4nQ63X1bufHjTXcal3403WiJljc3N/f96LFrVwcPnhwE/7ouCBoOCDbeZjQ03WjEel/RnJ6pVYWtKXSCheeCWsPU/UqtW3zmF1LqBW2esOQRaIiPf1bAzoFy8fftCSGa8uP756KbydwbtO2X64Dg5iPgWIWu/vHtVbuM7pMmoweOn3v1AdOD8/rf9K/Giw8d+vEM49zmfxp27n5BEPR8Ze3cu9Z9+ELQ3Nz87OZnb/3jxluNZRunGHNW5WhEytwfqzZNpYnFkybP/IZycWbCkVcR7t5LwNXC5CG5x95ZmLa4RZscQsbt1wJ2DqBM2SkhpCn3csqz29oIYFh6Rbh7W1wD5mL0gHFXXDToT/f/T99bRgY1Rq+gwbAM4/59qC1uIbyqhtjyj4ZR7pwxz+hVu+TEG//+6mVXY9wHU42fbZpqBO9NMX4fHYsw9/woDWhycWneFyntld3XSFXZhFT1QTde/HMVUjLBllDRS29o7GHbYhj6bhNJ/3D9O9LdKa3sTZmcoWNYICaaeZTO8Jy6R3QoBwwHtjgGVBy27Q1o/ZJ0D8XGYKQVGZEyH5g8EmwPudcJDwtl3g/br5MMupm2NxxN6hZHEW84DufQp4IYIxuj7wgf/HQRpbW9FQNDiGTyzhLKMj9Ea6b+7sZWJTGkoqdl1bdthyidZjFW7rS8L5mbzM1soQRP9SjvxINeajRYlMmndCivrRASJl6Jj1EAsxTl4qO2UzAcEjghbtbYgZa4YOCEX56/b/rM1i2rCUh/IuIg6tQHpi1E+GG3P/2j+NzJi8sOx5uNU4yFm6YYq5umGooBgHD3xNaAuHidcvcS9A0bfW9r1Za9s3sSLh4nrOqFhO2eFm1XPDPcbaDOnKWUyRuLSuT+JpMPEF71Dn4TYVWbCBPVlGd+Ay+OcP//9O8UzYRlQUL0FAQDN5pw8Qf036o+Zia3UKdqmaoeVgJcju8HmdGCkJXracRRKcu+RWxxN4QdtjPh1e8QLt8lPPuqyd2x0WmSXjP6EOZVU5ZdQ5n3EeHZDZZqaRU3E559kTrulaGnuQghsoQtf0GYWIAGdbCB4RoS5o4mXLxIuPeuLjLNvkW4fMhMuiPwHcle/jcJr36FcjEnt9HfZFA4tSB3ul7/Tu/3hFe/SGxxLWXuDNR5Uibfpyz7JmGySj3sHQTl1Qeplo023jFefkBt8UB8jGHbmaFta8KiFzSEXAiNER8HDGtYvteQhtfVEzR6v4lDRw2cMPbUwVozgL+FcrG1RbAd5JPFOjxl+HzKI/0G37mg/29HBiN7fHCHcXmQNYKmKcZ1+IzuCQ0l5utOO+2dEyY2msz/C+Hur6JmbG17oO9Yvhb1odBU9ieUe1sg9JT5VyCIjsZ41cLI5JPoFKNMQNju1dXA0cXywsYqsUVRvvHKS3Tesx7MBO8SLtfhf0QGCBdnm6a3D+FitfoeZcLogl1drIs2BbGxNbKgKUgIc9+Hl48bb3LpKtKlkCXCUp1sOBaO0RAQW94OUiRcMxUiY+JjNPer/Zn4mcXc/0e5t1lReoQhNP0/KD78lxzH72fb2YHq/DTtyTnRfVMBZfDvMLFGdTja3q2aGiRqMkMlVHRuDejp9lBRHY3/NCS4OJPy7OZ244SaVGpc3gDF3aLm77butM4B+m+CbCdvUIgh81b3Gla/4r5hdSvqRjY29kBabsx+4/94Udmf98LnYElAI3XL9K6EUK5NqptgGBXPDOl514KyMZOeGDQimGz0/3iGsWjTncbF0fGtlH+A7n/1tmqqirrwwtTgJtSjuR3VObpiuxbVvEobmkyM10Ln/ifp+IeDbk01yDP5XCrl7UPIjD7EcY9L8KrvE0dcoAiS9MV5nzIxkXL3rIQjvke4+yKoRBR1G8l+B3QjhMnHVRMWF4098Z67r+CGES7WW9wbS3jmf6BdLeVI1QbEdu+FliZMTIddje3EkVeFx1qrbrDtvU6ZuMJichRl7t/0Q4fzkX+iNHsgmvp1OZzcpNm4vMtRtQzKEyU4zGsyWWYiHk7KxT2RMBImr7Ys/wAdJK5V76NrS5k3UW2zxbvQmpgxtOOp7tE/LMcdTbm4lHCxVAuwu9HibocKkAmTd4Rdkm2F0KkOilnmh3kDwGeXk3bLeUGKs9typ484Rja8aA2vW7n4sDnvBCNqlynBOn/AhCNHDZpwYQAbpM88QmzRqKps1ZOF2jJZaxgjW2yWqY1ll0+d/41f4f+3bzR6BxUGyf0OmADKzrK9NLXFEspFqCkwtcsxsPkoE0uVBmHSx3uiNOg9ENQqxS7AxRxFmca9Tyj3Hie2+H2uPUSTcoI+N3c9cp/YRsDvx+SHoWO0hHBRrqdW8W/13Uy8ZSZnHkaYeFkJiCOqo+MRR0zVNqa/SdufhlFUgh4bd43WdOKWhOOfrj3+KghCS/DWtCuHo2FIx2FbhHAlfg/YtqL9inQWK0yhintaxqemQzu/o7WxvDehH0JdUMxES962RQiZWK9o7CCEah9/kzZFov3klYiUaC0ud1gFk3D8fu3njnUPCoQ6jwUMRqxS9W3sQK21QLzYnieci+H1K04YVr+iedisFW607YJBN5xxwcAJ519z0DUOihmJ400j3G00mXsTMybzkY3/x78395VkxYLS75UvKnvmzvn9f5dOGzmFrg17gJ8vMvgjIC4JbUO5+DgSOmWo2+4k2JyEu0sJy5xDuYcqnsBiGVVIAY1qcvkAYdkm3Ew9tcnnoI3wObXlpNBU2IBgOLahCINwuS3MEm1VhJTabtxCmP8+5fJZ3DywqiqBs73J0XlS5t2stCMT75i2ryrI8XsIk//WGsKdBK0VCtDH1HHPiMYW2zMGaGFFOrRFCFeFwntztJ+igmNoSlemxKRou5rmbfmSntlgqrj/RTm4FpVdf1m0F2X+DaF23ADBhxCG57wutwCV2uJ0ysTW0Jz5TcvXbAegamm3ikbNrMokuEPxQyqMbOxBHFnVthgh1IJMNiWTqILeMYbWr7x1+KzlzSPqV5wVbbvYvuInl9ArD8zf0zBGPtPU67s171w0sm5J/xkL91pS9cJ+wbQFZYsrHx+civYpK5MJk7mg2/UImZnnnRHbPwZMqPpmelJvQ3N29UeUeZtb0kW2WG6wGgcElCBQwn5oITW5W0m5v1ldVMe9CdvbE0JMPWBJpSlMvW4jcfxjiCOORxWRycTPTCZPLoK5wN2loRBOic6R2t4t+obKtZFWsSy5P2HyVaVRuHsbSbrHKeHWgiiMgQ8Uq9/CxHmU+x8rxdAqhG9gP5gZ0XeAeYKo7bOwfVGk2S3u/YAwuVGZL0x6aLcwmVin77NbGY03majVNjPIpMRBlLk3qZQa95txDnqvhiKTC6k1dvUn1G59WNoFm8wpaObadUjU78mf0hEOoODna0cL4gKatpjZKrGfjsPqV5nD6lb4w+9+470R9StGHfJAU+mhD6z76UEPbvxW7n6H37t0z2H3rLxiSP16dWOmze83x3tuv+DOhf3kbY/3zc2adAOnnuXMUReJcK+BcpEh3K1R9G4IVOuysfOxMwSNMvexVqNeCQCeOCPhyCMIE49D4BDGsGx5DTxdTM/RTSW2uFVPx+LdSAiRjVG2EYSVeaspcydAKxDmjQarK4zrIt2D+5qa+pJianTyuopEOXTr8oUQ+8L4d6dDaKCNVdSAQdPKvxLu1inBV/HRPJvwTS1s7oSWKwQzxZauZtDyAou7jRBmZcPBwYEJlPTOMvrWmyaDRoTtKDcpli0m6uD5anvXewhkm3BMtE1YpbQjYbJWUxCLLdq+FP/ZEeWHjuVGDW25MhX1JcNkyQnxgbG0feNRNZ9/kLA+WzZicENQNPyeN68fNmvF8uH1y18ffs/qD4fVr3z50NqVQ0fc88ag4XUrjx7RsOoPIxpWqmKHIDC6T5tfdn/5wrK/lC/q1xqvCmGamb0p9/6Ki59MzVNZEvVSF70afDTVuRkOhE2oU9McXoTmYrvyWGy3+lT00sKkb5b2UpUggM9GOVyEeVNoCjdEbIZWiI5ZrGJ+sDfhoUNz6rEWrw8sLi5CJbHJ3TUQVMLkjGgcOK7heRImPzCTusnHstzBhMnVVmoetldhG+h/kZvX3ii8XnVeIFdvatWEcH7ku/gOk4tbou9Q4x3v25R7TymtB69ZXZ/ZgcWrm4kNe3gSxX7Q2koLKQYzXMd56joirAMyUXXOSTE1dCDxQDTr42E/nJPcYu5gKlb0xlwua1tVrbUg2G91DLN1QIliiG9HbYZG9wPgU877lg5iWO3KocNmrVh4xMNbg+H1K7cOm7U8+91Zy6cMq1055sDKt1vCPOUL+k2cNr/srWmP9lcOTXtgbDI3mbyM2u48xOII8+aDb9Dk4qI+COTmwILG42KDsvmYfAr80NFnplm/D7X9SYR5i6giL/eqLafyiOhz6vinJ1QWxp1umtPzah4hlITJcguN+cx7HHYWYb6armCj4mFOcDEbHnU0xkrJU9XxuCiP6is1p6K4lTBxHwjZo1mGsJmHUNv9M0lCQ8mrVAul7b6hp3hxOx5GwsQUwsVsKyV/nnNqCji+4s1WfNveQsrkA7hmvXtnlQBGSCbF8SaXDfoaquvYgC656HMIoZpBbPEmnBHTET7hVY+ajrgfHn/usdpCJqykqFPat41ppytnLI5ERQ4sC8YqNEbbAeGP73ipTTsYUbem/5C65dcNq19+ymH1q1psPWDKwr0G3zW/n5y2oGzbXfPLLsr97NMBB6k1SwAgLsjDcnEIJuHV7+PJ1cHk7eHTHa1PR76j9HmA8JImXc+cl/tAIfhs8ewWpT2Y2xJS6Rg6cn64hvnXESBJ907tOIg3Wnl/OkY6RaEoeFXkxMWU2iyEqf4Bovi8QVgWQduCMSFU9oB4j9qVXzixTfmifj8uX9hv3vTHyt6atqDflumL+v06vs9nBXW80yiXL1PmLVThCky5TKyANxzft/NBJgh3Hw2DyC8hFkmZfByxSm2DuW8nSzJ5NvWuBEnK8tBu9DsalAaIU4mlNt5rdxrW/Uevt8tlqAPA8Wh2GExmUkXa42M+D4LA6DatsV+NeHbf4K4F/RdPX1R2ZHyfnQE4lcFEj4yJ9jol0mM7mDo6D0DqCTNDO1qzFd2xdkrU4junx/fflYA5QXj2D1EkoSNgKsTnv95uTFDHnj+IbM42oFyCrb3NwDButXjIpxQp7CzKF+/7/anzy36WfnFwB6aMjqO41BsA88GyRfqLKu36MlFaOs1SXrctr4e3bjqZMSA4j+/X2QDaYML850O6j5gswbP3t36qM6NWC2ozMAwmcvFwfP8CCsiFcta4fL41Lx4TQLVeiqtqALYLpJ7aDtZCCEbO+P5dC0E3xMZC4zvHsIaRnWu4Yy24aD04aP7QWEeVzsApxR2jKoHthGN0zIBXx8yztyp6tr7H90czEM4T23OdqHR3sKa2vsf/OM8Iuf+37Bc7r3R3XYWkflu31jEd+a0aKq3IvOe1vZcvP3oK9rehEmeHxyRcLG5/OlZG8vy2J99VEHSzS7MDUSABjxN1eMootitTqD1EgF7nhtPdsaREKswTg5wJcTyEXFAvqBu3ohtUQVBPGAka/o8C2ihZSiSz30PNHooiUCyA7ZY1fTCqjlS+eE/U/mkUJf1vIo0W9eXge2nvrMoqwT5E5Q5CYyr4boufoJIoGguP1SwRw7D2niojY/JH0aI/SD9qJybdI5EQ30A6UZ3z4IYizjNlaoxV0wuxvJ4498ENRTbMGFZ9SIlZuzd+N+ozdap0+1A1lbzqNa0B2wog4f4myr2OOZxYUqo9x0TZhLZYgrXX4mO6Bhr2QPEoCh7wDrYV4lOoo0ulZvaltrzYTOk6Qcq9s/QNRVEpaHD9M0tKavc2jMZELl0dku1Ihak3A6cUw/FBbSNuHNahC+v6DFVMwX0Vv1Rr3KHUi7tjcz11tBDYqcrhJsuerMYw7xRSmlUrDiS5dxI4fewww4IUYet9CLqhIBd5WTw8OH/L9i409kKxakVPi8mT8ZApfumke1xP6h2szrlvvUkd7wxakj1KxTRt/xgsuqiOb8tjqZ39BYRZrQ3DvV/hoYrONQ6LeaMJz67VFT65chOxbnirUcIVH7ddoBqi3coZ5WaLt6JSq64IaD6LyVORFjNT9fskUZJVKvfCDcXiMXqqbuyBm0P4LCUACHRDKzlOAzOMoLsqnm2BTECDElY5RN1I5h/KWOZQaDo4FXr1gIYiZAOw9CwWUrSsiv2h7Uip+x0t6NG5+Yci7wytq95zeQKC0/ifsqojCcueHwW3kZfW5woE3RIJvx9KropV6izdPcm8c9XvMYJu0Ny6iLWxBz5HHadeHizdHVo7ouHDClZ2yjsa2rZIpREzh0baG92M7cUPoZUt7k2m3A+LJVDFFMmM5ppUbb+8okNlXi3QiXe5pe2UrEksLbtyu+VbnR9BaHfhgkZ2SRC3T7ppuykeBWjZP2aOYD8IRJ6dE+6DfXP3b88WzflMB6bDbThuNO1jXK5dFz+HOHLPv7GHPm44Rv2fe67R/9F35H62/e/Bg0dY1UNaYcVbPsIyNObN2snlx+pNEJe3X8iqPOR6bZwX8LXE4IYirG1HWXZVqOlyZCTMqrHsepVZ+wyB7TbAwswWOujaaEMUMMiNXxq7ZgGdCj3hIKnqbL1wTlvthzyw32hZHauy/lTozrDMP3WAOl8bKulXDUnbV9UF7F4IS8uuRKWP1n65jmvIM87kBhTD5nXpfV6gWYZwr7UHJF8bbk5yeUJ8TAG7H0yO5Wezj2o5yK0pCD1fzJZMzotzDn1hIExMbT/yjSoO8b9RlUoBux9U5ADtnKqVNdf20+VXYfB5CVomdikpQB/VGCQf2q4BymV9vDatgK4N1cWYlHdFBbWtU2/rmnVhRfu1aJyKj98lsKzKA9C4o3tXcwUR9G81AXHcuwrectcHMivop9HEUhC2nPIrR7dMUOatQjEt+pXj43c5wrTRc201IgQRU3NmGoKz8XEFdH4kkph23Tsol2/p+xutsIAX+kqU8K1GX05eCf5XgSKrYn/0Y2iVnOsdaXYBNMmgeTw+roDOiIqeyMbgnlEWLWwUaT54u2EAmqly/gmEdKIFy9GbQbmXsXiV7lXN04jqiXks0QXr9r4uUM3n3D+b2HI+GtmtvIWNoPWUybWVcm9JgvlXYf/4MToJwJPi/Zpy/w1tuOYsEQFqC+atI468OuKDKeArRpliqfgR5d7NhMvX9HQbpdpw72DvRXw6YjZh7rklYOHqCkDim3A5O5qOW4UR3C+K0uER4lQeHx9XwJcDFB+oJV/V2tFykyZmwpSL6VZnN1SBKUMfjpygG8+7YgICjdEscw6xwS+iCXMio1aT9HgbTSZ81Lq1V4VRwBeIMplA3Z9maRB/ocx7QxWcKNYtzS4W1gM0m1ysQXhNsUW0y4vYBRFy8f1Brcqu7IxIGLXqJ0w2UZadbvHMDzrWelhAR4CIhFniDwVjF+HybsLl+ih0pjhf1F9oQMT2vBXgMTS5vETzyXRFrdcBMDyJDlpG/SXa4A3Vf4urLz9AYzVJirNRixYfX8COgdUKkEozmbyBOt79oAZBDE/F8ULB0yxnKqi8mnCvxrTlb3aGVbVLI8EzZcUsew7IgqiizwinakWVoXpVPlHMVdy9Lano0XZh2qdLI90dJg8DyxaXlxAuZ8FzVTOL4mS8J5xuwxwul1sIF6+bXGQSjnuGLmyN10V+zYCUXgL0Y457l8nES4SJjxQ3imL4hDCqwscmysTTeLJhHOsO/910qtgBML2iehoknKYjx4CGGRzOqoGci2bNS3NvSK+s6N3Aj7PM5OJRkESBHwcVUJ+PSWJ3hl2ZStjuGYS5Myj3nlbEOqEw6qkEmhK8geIFrAJq2u5YXFRNBL47omEPxRXDvB8iLEIdsMCKOdQGB3dYoaJmjoiWV9P1gvrYZPJ+03YnYcWCHbFhFbAdQNspPj9FPA4SIbExKhXSQjknpLTFdu8pi7sNJpMTEjaoPcRBccKjzg509tm2P5Q67mkWd69TfNTce5Aw8QKmVs2chd8MLTcrDKGABxKkm/J5wkSVIiLi4qe6m6+Qq/9CgaA2GoIsdJdpZqpFSBchtmVBKFNzQ1ozaALRrAjKufsqscUjYMTCzbGY/LlZkhkKzYL2SuX0qOqeXWUPpXug0Qjnjo47hDmKkmIQ6HfBukWT8jLCxWQEfynP/Ityb7niFuTyE6XZWqjaQEmnOP8+AEk5WFSJLeaAtAnddooyTjVDFYTuS0bQTS2foFhXxW+p7WWw7AGWm9JElVVaU0I4lWEOzaHz2YSJD4nt4ob/E4WWis2Vy9st7qXB1G864kJqy1+CKti05Mlm0juJJL3jiF15LNoc1Qs0aZb4b5O5p6AzD22cxAH5pXe5xd3rCfduNW2RQZm7Ik1X5oNYQ7nYFgWCtbd6dwAeQggcVZzYilBqI6ZTyuRjhLlzCRPTTO5dis463cWX28BeQCdDunsxm95fOznidDMpLtXUaaIaRRVEOT0oQdJ0Y63OT/QCkWXuCwSgqBiJvMqoagQvhJQ0kXt74/Jf+B79wliw3VMuX6VMPAGuRMrFTKxyZdri1zAlilnlkWi3bEOFVkAXR+8sxZSIZDtY61U6MSmOx7ocWEncZPImykQ5sSXsqnng0yHcfcLk8l+Ui5cJd18jmN5zXhRUKEw8h4VzsBwE5eJBzVYmhWJudcQ4BH3BVpVMesdplga5vyKCL522l86b7ypTYPfH/wf3pkIwgCgFNgAAAABJRU5ErkJggg==;" vertex="1" parent="1">
          <mxGeometry x="210" y="128.25" width="71" height="31.75" as="geometry" />
        </mxCell>
        <mxCell id="Tuuc9--l-ZZjQsvKf7pB-11" style="edgeStyle=orthogonalEdgeStyle;rounded=1;orthogonalLoop=1;jettySize=auto;html=1;entryX=0.005;entryY=0.63;entryDx=0;entryDy=0;entryPerimeter=0;fillColor=#dae8fc;strokeColor=#6c8ebf;curved=0;dashed=1;" edge="1" parent="1" source="Tuuc9--l-ZZjQsvKf7pB-2" target="Tuuc9--l-ZZjQsvKf7pB-1">
          <mxGeometry relative="1" as="geometry" />
        </mxCell>
        <mxCell id="Tuuc9--l-ZZjQsvKf7pB-12" style="edgeStyle=orthogonalEdgeStyle;rounded=0;orthogonalLoop=1;jettySize=auto;html=1;entryX=0.54;entryY=0.965;entryDx=0;entryDy=0;entryPerimeter=0;shape=link;dashed=1;fillColor=#dae8fc;strokeColor=#6c8ebf;" edge="1" parent="1" source="Tuuc9--l-ZZjQsvKf7pB-5" target="Tuuc9--l-ZZjQsvKf7pB-1">
          <mxGeometry relative="1" as="geometry">
            <Array as="points">
              <mxPoint x="497" y="278" />
            </Array>
          </mxGeometry>
        </mxCell>
        <mxCell id="Tuuc9--l-ZZjQsvKf7pB-15" value="&lt;font style=&quot;color: rgb(31, 24, 255);&quot;&gt;www.systemgroupglobal.com&lt;/font&gt;" style="text;html=1;align=center;verticalAlign=middle;whiteSpace=wrap;rounded=0;fontSize=9;" vertex="1" parent="1">
          <mxGeometry x="165.5" y="98.25" width="160" height="30" as="geometry" />
        </mxCell>
        <mxCell id="Tuuc9--l-ZZjQsvKf7pB-16" value="React" style="text;html=1;align=center;verticalAlign=middle;whiteSpace=wrap;rounded=0;fontSize=10;" vertex="1" parent="1">
          <mxGeometry x="324" y="98.25" width="60" height="30" as="geometry" />
        </mxCell>
        <mxCell id="Tuuc9--l-ZZjQsvKf7pB-17" value="Cliente" style="text;html=1;align=center;verticalAlign=middle;whiteSpace=wrap;rounded=0;" vertex="1" parent="1">
          <mxGeometry x="95" y="160" width="60" height="30" as="geometry" />
        </mxCell>
        <mxCell id="Tuuc9--l-ZZjQsvKf7pB-18" value="API Layer" style="text;html=1;align=center;verticalAlign=middle;whiteSpace=wrap;rounded=0;" vertex="1" parent="1">
          <mxGeometry x="460" y="160" width="60" height="30" as="geometry" />
        </mxCell>
        <mxCell id="Tuuc9--l-ZZjQsvKf7pB-19" value="" style="sketch=0;verticalLabelPosition=bottom;sketch=0;aspect=fixed;html=1;verticalAlign=top;strokeColor=#6c8ebf;fillColor=#dae8fc;align=center;outlineConnect=0;pointerEvents=1;shape=mxgraph.citrix2.bot_mitigation;" vertex="1" parent="1">
          <mxGeometry x="700" y="120.13" width="40" height="36.71" as="geometry" />
        </mxCell>
        <mxCell id="Tuuc9--l-ZZjQsvKf7pB-20" value="" style="sketch=0;outlineConnect=0;fillColor=#0050ef;strokeColor=#001DBC;dashed=0;verticalLabelPosition=bottom;verticalAlign=top;align=center;html=1;fontSize=12;fontStyle=0;aspect=fixed;pointerEvents=1;shape=mxgraph.aws4.waf_bad_bot;fontColor=#ffffff;" vertex="1" parent="1">
          <mxGeometry x="700" y="180" width="39" height="35.5" as="geometry" />
        </mxCell>
        <mxCell id="Tuuc9--l-ZZjQsvKf7pB-21" value="" style="html=1;verticalLabelPosition=bottom;align=center;labelBackgroundColor=#ffffff;verticalAlign=top;strokeWidth=2;strokeColor=#0080F0;shadow=0;dashed=0;shape=mxgraph.ios7.icons.data;" vertex="1" parent="1">
          <mxGeometry x="708" y="40" width="24" height="29.1" as="geometry" />
        </mxCell>
        <mxCell id="Tuuc9--l-ZZjQsvKf7pB-22" value="" style="sketch=0;outlineConnect=0;fontColor=#ffffff;fillColor=#0050ef;strokeColor=#001DBC;dashed=0;verticalLabelPosition=bottom;verticalAlign=top;align=center;html=1;fontSize=12;fontStyle=0;aspect=fixed;pointerEvents=1;shape=mxgraph.aws4.sagemaker_model;" vertex="1" parent="1">
          <mxGeometry x="700" y="250" width="38" height="38" as="geometry" />
        </mxCell>
      </root>
    </mxGraphModel>
  </diagram>
</mxfile>
